# xmcd CD database file
#
# Track frame offsets:
#	150
#	16344
#	31923
#	45664
#	60933
#	73793
#	90309
#	103616
#	119995
#	136943
#	149515
#	161394
#
# Disc length: 2353 seconds
#
# Revision: 0
# Processed by: cddbd v1.5.2PL0 Copyright (c) Steve Scherf et al.
# Submitted via: CDex 1.86
#
DISCID=9f092f0c
DTITLE=Phoenix - Blue Ridge Frame of Mind
DYEAR=2002
DGENRE=Country
TTITLE0=Over The Hill to the Poorhouse
TTITLE1=Blue Ridge Frame Of Mind
TTITLE2=Ocean of Diamonds
TTITLE3=Just To See You Smile
TTITLE4=Lonesome Feeling
TTITLE5=Tattoos Of Life
TTITLE6=Waiting To Hear You Call Me Darling
TTITLE7=House That Love Built
TTITLE8=Paradise
TTITLE9=Did She Mention My Name
TTITLE10=I've Got Bluegrass On My Mind
TTITLE11=You Go To Your Church
EXTD=YEAR: 2002
EXTT0=
EXTT1=
EXTT2=
EXTT3=
EXTT4=
EXTT5=
EXTT6=
EXTT7=
EXTT8=
EXTT9=
EXTT10=
EXTT11=
PLAYORDER=
